
<svg xmlns="http://www.w3.org/2000/svg" height="100" width="100">
  <g fill="#a9cbff" stroke="black" stroke-width="6">
    <circle cx="45" cy="45" r="40" />
  </g>
  <g fill="#fff" stroke="#000" stroke-width="4">
    <rect x="20" y="60" width="78" height="38" rx="5"/>
  </g>

  <g fill-rule="nonzero" fill="#000" transform="translate(26, 67) scale(.65, .70)">
    <path d="M 18.816 35.085 L 12.691 35.085 L 0 0.001 L 7.032 0.001 L 14.725 22.467 L 15.901 26.167 L 16.072 26.167 L 17.248 22.516 L 25.015 0.001 L 31.948 0.001 L 18.816 35.085 Z"/>
    <path d="M 47.775 35.085 L 36.064 35.085 L 36.064 0.001 L 47.775 0.001 Q 55.811 0.001 60.711 4.815 Q 65.611 9.629 65.611 17.494 Q 65.611 25.456 60.711 30.271 Q 55.811 35.085 47.775 35.085 Z M 42.581 6.077 L 42.581 29.156 L 47.481 29.156 Q 52.822 29.18 55.909 26.118 Q 58.996 23.055 58.996 17.543 Q 58.996 12.079 55.897 9.078 Q 52.798 6.077 47.481 6.077 L 42.581 6.077 Z"/>
    <path d="M 77.714 35.085 L 71.197 35.085 L 71.197 0.001 L 77.714 0.001 L 77.714 35.085 Z M 84.427 17.249 L 75.142 27.906 L 75.142 19.307 L 91.287 0.001 L 99.495 0.001 L 84.427 17.249 Z M 100.23 35.085 L 92.365 35.085 L 81.046 18.4 L 85.309 13.427 L 100.23 35.085 Z"/>
  </g>
</svg>
